<svg width="24" height="24" viewBox="0 0 24 24" fill="none" xmlns="http://www.w3.org/2000/svg">
<path fill-rule="evenodd" clip-rule="evenodd" d="M12 5.66764C11.2739 4.65771 10.0888 4 8.75 4H5C3.34315 4 2 5.34315 2 7V17C2 18.6569 3.34315 20 5 20H8.02633C8.67123 20 9.3119 20.104 9.9237 20.3079L11.6838 20.8946C11.889 20.963 12.111 20.963 12.3162 20.8946L14.0763 20.3079C14.6881 20.104 15.3288 20 15.9737 20H19C20.6569 20 22 18.6569 22 17V7C22 5.34315 20.6569 4 19 4H15.25C13.9112 4 12.7261 4.65771 12 5.66764ZM11.25 19.0729V8C11.25 6.61929 10.1307 5.5 8.75 5.5H5C4.17157 5.5 3.5 6.17157 3.5 7V17C3.5 17.8284 4.17157 18.5 5 18.5H8.02633C8.83245 18.5 9.63329 18.63 10.398 18.8849L11.1745 19.1437C11.1991 19.1195 11.2243 19.0959 11.25 19.0729ZM12.75 8V19.0729C12.7757 19.0959 12.8009 19.1195 12.8255 19.1437L13.602 18.8849C14.3667 18.63 15.1676 18.5 15.9737 18.5H19C19.8284 18.5 20.5 17.8284 20.5 17V7C20.5 6.17157 19.8284 5.5 19 5.5H15.25C13.8693 5.5 12.75 6.61929 12.75 8Z" fill="black"/>
</svg>
