<svg width="24" height="24" viewBox="0 0 24 24" fill="none" xmlns="http://www.w3.org/2000/svg">
<path fill-rule="evenodd" clip-rule="evenodd" d="M11.1 16.8C11.6333 16.4 12.3667 16.4 12.9 16.8L16.1 19.2C17.0889 19.9416 18.5 19.2361 18.5 18V5C18.5 4.17157 17.8284 3.5 17 3.5H7C6.17157 3.5 5.5 4.17157 5.5 5V18C5.5 19.2361 6.91115 19.9416 7.9 19.2L11.1 16.8ZM12 18L15.2 20.4C17.1777 21.8833 20 20.4721 20 18V5C20 3.34315 18.6569 2 17 2H7C5.34315 2 4 3.34315 4 5V18C4 20.4721 6.82229 21.8833 8.8 20.4L12 18Z" fill="black"/>
<path fill-rule="evenodd" clip-rule="evenodd" d="M8.25 7C8.25 6.58579 8.58579 6.25 9 6.25H15C15.4142 6.25 15.75 6.58579 15.75 7C15.75 7.41421 15.4142 7.75 15 7.75H9C8.58579 7.75 8.25 7.41421 8.25 7Z" fill="black"/>
</svg>
