<svg width="24" height="24" viewBox="0 0 24 24" fill="none" xmlns="http://www.w3.org/2000/svg">
<path fill-rule="evenodd" clip-rule="evenodd" d="M11 6.5C10.6022 6.5 10.2206 6.34196 9.93934 6.06066L8.81802 4.93934C8.53672 4.65804 8.15518 4.5 7.75736 4.5H5C4.17157 4.5 3.5 5.17157 3.5 6V18C3.5 18.8284 4.17157 19.5 5 19.5H19C19.8284 19.5 20.5 18.8284 20.5 18V8C20.5 7.17157 19.8284 6.5 19 6.5H11ZM11 5H19C20.6569 5 22 6.34315 22 8V18C22 19.6569 20.6569 21 19 21H5C3.34315 21 2 19.6569 2 18V6C2 4.34315 3.34315 3 5 3H7.75736C8.55301 3 9.31607 3.31607 9.87868 3.87868L11 5Z" fill="black"/>
</svg>
