<svg width="24" height="24" viewBox="0 0 24 24" fill="none" xmlns="http://www.w3.org/2000/svg">
<path d="M21.25 8.72C21.25 9.88 20.81 11.05 19.92 11.94L18.44 13.42L12.07 19.79C12.04 19.82 12.03 19.83 12 19.85C11.97 19.83 11.96 19.82 11.93 19.79L4.08 11.94C3.19 11.05 2.75 9.89 2.75 8.72C2.75 7.55 3.19 6.38001 4.08 5.49001C5.86 3.72001 8.74 3.72001 10.52 5.49001L11.99 6.97L13.47 5.49001C15.25 3.72001 18.12 3.72001 19.9 5.49001C20.81 6.38001 21.25 7.54 21.25 8.72Z" stroke="black" stroke-width="1.5" stroke-linecap="round" stroke-linejoin="round"/>
</svg>
