<svg width="24" height="24" viewBox="0 0 24 24" fill="none" xmlns="http://www.w3.org/2000/svg">
<path fill-rule="evenodd" clip-rule="evenodd" d="M12 20.5C16.6944 20.5 20.5 16.6944 20.5 12C20.5 7.30558 16.6944 3.5 12 3.5C7.30558 3.5 3.5 7.30558 3.5 12C3.5 16.6944 7.30558 20.5 12 20.5ZM12 22C17.5228 22 22 17.5228 22 12C22 6.47715 17.5228 2 12 2C6.47715 2 2 6.47715 2 12C2 17.5228 6.47715 22 12 22Z" fill="black"/>
<path fill-rule="evenodd" clip-rule="evenodd" d="M7.1158 13.3127C7.49537 13.1469 7.93751 13.3202 8.10335 13.6997C8.75986 15.2023 10.2584 16.25 12 16.25C13.7416 16.25 15.2402 15.2023 15.8967 13.6997C16.0626 13.3202 16.5047 13.1469 16.8843 13.3127C17.2638 13.4786 17.4371 13.9207 17.2713 14.3003C16.3847 16.3295 14.3591 17.75 12 17.75C9.64101 17.75 7.61542 16.3295 6.72882 14.3003C6.56298 13.9207 6.73624 13.4786 7.1158 13.3127Z" fill="black"/>
<path d="M9 9C9 9.55228 8.55228 10 8 10C7.44772 10 7 9.55228 7 9C7 8.44772 7.44772 8 8 8C8.55228 8 9 8.44772 9 9Z" fill="black"/>
<path d="M17 9C17 9.55228 16.5523 10 16 10C15.4477 10 15 9.55228 15 9C15 8.44772 15.4477 8 16 8C16.5523 8 17 8.44772 17 9Z" fill="black"/>
</svg>
