<svg width="24" height="24" viewBox="0 0 24 24" fill="none" xmlns="http://www.w3.org/2000/svg">
<path fill-rule="evenodd" clip-rule="evenodd" d="M6.55221 2C5.31497 2 4.20463 2.75954 3.75619 3.91266L1.96825 8.51023C1.53386 9.62723 2.01111 10.8522 3 11.4121V19C3 20.6568 4.34315 22 6 22H18C19.6569 22 21 20.6568 21 19V11.4121C21.9889 10.8522 22.4662 9.62723 22.0318 8.51023L20.2438 3.91266C19.7954 2.75955 18.685 2 17.4478 2H6.55221ZM19.5 11.7648C18.8804 11.7717 18.2635 11.6318 17.7016 11.3508L17 11L16.357 11.2572C15.1649 11.734 13.8351 11.734 12.6431 11.2572L12 11L11.357 11.2572C10.1649 11.734 8.83511 11.734 7.64305 11.2572L7.00001 11L6.29844 11.3508C5.73649 11.6318 5.11956 11.7717 4.5 11.7648V19C4.5 19.8284 5.17157 20.5 6 20.5H8V17C8 15.3431 9.34315 14 11 14H13C14.6569 14 16 15.3431 16 17V20.5H18C18.8284 20.5 19.5 19.8284 19.5 19V11.7648ZM11.25 9.68445V3.5H9.15991L7.82799 9.71564L8.20014 9.8645C9.03458 10.1983 9.96543 10.1983 10.7999 9.8645L11.25 9.68445ZM12.75 9.68445V3.5H14.8402L16.1721 9.71562L15.7999 9.8645C14.9654 10.1983 14.0346 10.1983 13.2001 9.8645L12.75 9.68445ZM17.6966 9.67126L16.3742 3.5H17.4478C18.0664 3.5 18.6216 3.87977 18.8458 4.45633L20.6338 9.0539C20.8203 9.53347 20.5437 10.0679 20.0445 10.1927C19.4831 10.3331 18.89 10.2679 18.3724 10.0091L17.6966 9.67126ZM6.55221 3.5H7.62586L6.30345 9.67123L5.62762 10.0091C5.11001 10.2679 4.51689 10.3331 3.95546 10.1927C3.45626 10.0679 3.17976 9.53347 3.36626 9.0539L5.1542 4.45633C5.37842 3.87977 5.93358 3.5 6.55221 3.5ZM14.5 17V20.5H9.5V17C9.5 16.1716 10.1716 15.5 11 15.5H13C13.8284 15.5 14.5 16.1716 14.5 17Z" fill="black"/>
</svg>
