<svg width="24" height="24" viewBox="0 0 24 24" fill="none" xmlns="http://www.w3.org/2000/svg">
<path d="M11.85 21C11.34 21.03 10.84 20.85 10.4 20.65C9.41999 20.22 8.66001 19.43 8.39001 18.42C8.36001 18.31 8.34001 18.21 8.32001 18.12C8.27001 17.86 8.23999 17.66 8.23999 17.5C8.23999 16.55 8.61001 15.62 9.29001 14.88L11.35 12.57C11.35 12.57 11.61 12.28 11.86 12C12.12 12.29 12.37 12.57 12.37 12.57L14.43 14.88C15.11 15.62 15.48 16.55 15.48 17.5C15.48 17.66 15.45 17.86 15.4 18.12C15.37 18.21 15.35 18.31 15.33 18.42C15.06 19.43 14.3 20.22 13.32 20.65C12.85 20.84 12.36 20.96 11.85 21Z" stroke="black" stroke-width="1.5" stroke-linecap="round" stroke-linejoin="round"/>
<path d="M12.71 4.26001C12.39 3.66001 12.16 3.21002 12.16 3.21002C12 2.94002 11.69 2.75 11.33 2.75C11.07 2.75 10.8 2.86999 10.63 3.04999L6.17999 8.04999C4.71999 9.63999 3.92001 11.65 3.92001 13.71C3.92001 14.05 3.98001 14.48 4.10001 15.04C4.16001 15.24 4.20001 15.44 4.26001 15.68C5.11001 18.85 8.2 21.02 11.75 21.24C15.5 21.26 18.91 19 19.77 15.69C19.84 15.46 19.89 15.23 19.95 15.04C20.05 14.52 20.11 14.1 20.11 13.77V13.64C20.11 11.47 19.01 9.02 17.99 7.44L17.04 5.98999C16.89 5.73999 16.6 5.60003 16.28 5.59003C15.97 5.59003 15.68 5.72997 15.52 5.96997L14.44 7.5C14.42 7.5 13.38 5.53001 12.71 4.26001Z" stroke="black" stroke-width="1.5" stroke-linecap="round" stroke-linejoin="round"/>
</svg>
