<svg width="24" height="24" viewBox="0 0 24 24" fill="none" xmlns="http://www.w3.org/2000/svg">
<path d="M18.6 7.04L17.67 5.62002C17.4 5.16002 16.89 4.87 16.27 4.85C15.71 4.85 15.18 5.12 14.89 5.54L14.52 6.07003L12.81 2.83004C12.28 1.93004 10.87 1.72001 10.07 2.55001L5.62003 7.54C4.03003 9.27 3.16003 11.46 3.16003 13.71C3.16003 14.1 3.22003 14.57 3.37003 15.26C3.40003 15.38 3.43003 15.51 3.47003 15.65L3.52002 15.88C4.44002 19.29 7.72004 21.75 11.73 22H11.79C15.9 22 19.56 19.44 20.47 15.92C20.52 15.78 20.55 15.64 20.59 15.5C20.61 15.42 20.63 15.34 20.67 15.19C20.79 14.59 20.84 14.1401 20.84 13.7801V13.65C20.84 11.33 19.69 8.71 18.6 7.04ZM14.67 17.92C14.65 17.99 14.63 18.06 14.61 18.14L14.59 18.23C14.39 18.98 13.81 19.61 13 19.96C12.62 20.13 12.22 20.22 11.8 20.25H11.76C11.45 20.25 11.1 20.14 10.69 19.96C9.89003 19.61 9.31002 18.98 9.08002 18.14C9.06002 18.06 9.05004 17.98 9.04004 17.97C9.00004 17.76 8.97003 17.61 8.97003 17.51C8.97003 16.74 9.28002 15.99 9.83002 15.39L11.85 13.13L13.87 15.4C14.42 15.99 14.72 16.74 14.72 17.51C14.72 17.61 14.7 17.77 14.67 17.92Z" fill="black"/>
</svg>
